<svg width="75" height="24" viewBox="0 0 75 24" fill="none" xmlns="http://www.w3.org/2000/svg">
<rect width="75" height="24" rx="12" fill="black"/>
<path d="M19.6357 13.272H17.2773L17.2627 12.0562H19.3647C19.6821 12.0562 19.9507 12.0146 20.1704 11.9316C20.3901 11.8486 20.5562 11.729 20.6685 11.5728C20.7856 11.4116 20.8442 11.2163 20.8442 10.9868C20.8442 10.728 20.7881 10.5156 20.6758 10.3496C20.5635 10.1836 20.395 10.064 20.1704 9.99072C19.9458 9.9126 19.6675 9.87354 19.3354 9.87354H17.8706V17H16.1055V8.46729H19.2402C19.7676 8.46729 20.2363 8.51611 20.6465 8.61377C21.0615 8.70654 21.4155 8.84814 21.7085 9.03857C22.0015 9.229 22.2236 9.47314 22.375 9.771C22.5312 10.064 22.6094 10.4106 22.6094 10.811C22.6094 11.1577 22.5215 11.48 22.3457 11.7778C22.1748 12.0757 21.9111 12.3174 21.5547 12.5029C21.1982 12.6885 20.7368 12.791 20.1704 12.8105L19.6357 13.272ZM19.5552 17H16.7793L17.4971 15.6011H19.5552C19.897 15.6011 20.1777 15.5522 20.3975 15.4546C20.6221 15.3569 20.7881 15.2251 20.8955 15.0591C21.0029 14.8882 21.0566 14.6929 21.0566 14.4731C21.0566 14.229 21.0078 14.019 20.9102 13.8433C20.8174 13.6626 20.666 13.5234 20.4561 13.4258C20.2461 13.3232 19.9727 13.272 19.6357 13.272H17.834L17.8413 12.0562H20.1265L20.5293 12.5322C21.0713 12.5225 21.5107 12.6177 21.8477 12.8179C22.1846 13.0132 22.4312 13.2671 22.5874 13.5796C22.7485 13.8921 22.8291 14.2168 22.8291 14.5537C22.8291 14.9688 22.7559 15.3301 22.6094 15.6377C22.4629 15.9404 22.2505 16.1943 21.9722 16.3994C21.6938 16.5996 21.3521 16.751 20.9468 16.8535C20.5415 16.9512 20.0776 17 19.5552 17ZM25.3013 8.46729H28.6631C29.1855 8.46729 29.6543 8.52344 30.0693 8.63574C30.4844 8.74805 30.8359 8.91406 31.124 9.13379C31.417 9.34863 31.6392 9.61719 31.7905 9.93945C31.9468 10.2568 32.0249 10.6255 32.0249 11.0454C32.0249 11.5093 31.9419 11.9072 31.7759 12.2393C31.6099 12.5664 31.3755 12.8374 31.0728 13.0522C30.77 13.2671 30.4136 13.4404 30.0034 13.5723L29.4395 13.8799H26.4731L26.4585 12.4736H28.6851C29.0366 12.4736 29.3271 12.4199 29.5566 12.3125C29.7861 12.2051 29.9595 12.0562 30.0767 11.8657C30.1938 11.6704 30.2524 11.4458 30.2524 11.1919C30.2524 10.9233 30.1938 10.6914 30.0767 10.4961C29.9644 10.2959 29.7886 10.1421 29.5493 10.0347C29.3149 9.92725 29.0195 9.87354 28.6631 9.87354H27.0737V17H25.3013V8.46729ZM30.4722 17L28.3628 13.2207L30.2305 13.2061L32.3765 16.9194V17H30.4722ZM40.6348 15.6011V17H35.7495V15.6011H40.6348ZM36.3062 8.46729V17H34.541V8.46729H36.3062ZM40.0049 11.8877V13.2866H35.7495V11.8877H40.0049ZM40.6201 8.46729V9.87354H35.7495V8.46729H40.6201ZM46.3516 10.2178L43.7881 17H42.001L45.436 8.46729H46.6226L46.3516 10.2178ZM48.7173 17L46.1392 10.2031L45.8682 8.46729H47.0767L50.5044 17H48.7173ZM48.6074 13.8359V15.1616H43.7295V13.8359H48.6074ZM54.1997 8.46729V17H52.4346V8.46729H54.1997ZM59.6709 8.46729L56.0381 12.7007L53.9873 14.7002L53.5771 13.0449L55.0273 11.2725L57.4736 8.46729H59.6709ZM57.7153 17L54.8955 13.0669L56.1846 11.9756L59.8247 17H57.7153Z" fill="white"/>
</svg>
