<svg width="45" height="18" viewBox="0 0 45 18" fill="none" xmlns="http://www.w3.org/2000/svg">
<path d="M4.63574 10.272H2.27734L2.2627 9.05615H4.36475C4.68213 9.05615 4.95068 9.01465 5.17041 8.93164C5.39014 8.84863 5.55615 8.729 5.66846 8.57275C5.78564 8.41162 5.84424 8.21631 5.84424 7.98682C5.84424 7.72803 5.78809 7.51562 5.67578 7.34961C5.56348 7.18359 5.39502 7.06396 5.17041 6.99072C4.9458 6.9126 4.66748 6.87354 4.33545 6.87354H2.87061V14H1.10547V5.46729H4.24023C4.76758 5.46729 5.23633 5.51611 5.64648 5.61377C6.06152 5.70654 6.41553 5.84814 6.7085 6.03857C7.00146 6.229 7.22363 6.47314 7.375 6.771C7.53125 7.06396 7.60938 7.41064 7.60938 7.81104C7.60938 8.15771 7.52148 8.47998 7.3457 8.77783C7.1748 9.07568 6.91113 9.31738 6.55469 9.50293C6.19824 9.68848 5.73682 9.79102 5.17041 9.81055L4.63574 10.272ZM4.55518 14H1.7793L2.49707 12.6011H4.55518C4.89697 12.6011 5.17773 12.5522 5.39746 12.4546C5.62207 12.3569 5.78809 12.2251 5.89551 12.0591C6.00293 11.8882 6.05664 11.6929 6.05664 11.4731C6.05664 11.229 6.00781 11.019 5.91016 10.8433C5.81738 10.6626 5.66602 10.5234 5.45605 10.4258C5.24609 10.3232 4.97266 10.272 4.63574 10.272H2.83398L2.84131 9.05615H5.12646L5.5293 9.53223C6.07129 9.52246 6.51074 9.61768 6.84766 9.81787C7.18457 10.0132 7.43115 10.2671 7.5874 10.5796C7.74854 10.8921 7.8291 11.2168 7.8291 11.5537C7.8291 11.9688 7.75586 12.3301 7.60938 12.6377C7.46289 12.9404 7.25049 13.1943 6.97217 13.3994C6.69385 13.5996 6.35205 13.751 5.94678 13.8535C5.5415 13.9512 5.07764 14 4.55518 14ZM10.3013 5.46729H13.6631C14.1855 5.46729 14.6543 5.52344 15.0693 5.63574C15.4844 5.74805 15.8359 5.91406 16.124 6.13379C16.417 6.34863 16.6392 6.61719 16.7905 6.93945C16.9468 7.25684 17.0249 7.62549 17.0249 8.04541C17.0249 8.50928 16.9419 8.90723 16.7759 9.23926C16.6099 9.56641 16.3755 9.8374 16.0728 10.0522C15.77 10.2671 15.4136 10.4404 15.0034 10.5723L14.4395 10.8799H11.4731L11.4585 9.47363H13.6851C14.0366 9.47363 14.3271 9.41992 14.5566 9.3125C14.7861 9.20508 14.9595 9.05615 15.0767 8.86572C15.1938 8.67041 15.2524 8.4458 15.2524 8.19189C15.2524 7.92334 15.1938 7.69141 15.0767 7.49609C14.9644 7.2959 14.7886 7.14209 14.5493 7.03467C14.3149 6.92725 14.0195 6.87354 13.6631 6.87354H12.0737V14H10.3013V5.46729ZM15.4722 14L13.3628 10.2207L15.2305 10.2061L17.3765 13.9194V14H15.4722ZM25.6348 12.6011V14H20.7495V12.6011H25.6348ZM21.3062 5.46729V14H19.541V5.46729H21.3062ZM25.0049 8.8877V10.2866H20.7495V8.8877H25.0049ZM25.6201 5.46729V6.87354H20.7495V5.46729H25.6201ZM31.3516 7.21777L28.7881 14H27.001L30.436 5.46729H31.6226L31.3516 7.21777ZM33.7173 14L31.1392 7.20312L30.8682 5.46729H32.0767L35.5044 14H33.7173ZM33.6074 10.8359V12.1616H28.7295V10.8359H33.6074ZM39.1997 5.46729V14H37.4346V5.46729H39.1997ZM44.6709 5.46729L41.0381 9.70068L38.9873 11.7002L38.5771 10.0449L40.0273 8.27246L42.4736 5.46729H44.6709ZM42.7153 14L39.8955 10.0669L41.1846 8.97559L44.8247 14H42.7153Z" fill="black"/>
</svg>
