<svg width="45" height="18" viewBox="0 0 45 18" fill="none" xmlns="http://www.w3.org/2000/svg">
<path d="M2.7168 5.46729V14H0.95166V5.46729H2.7168ZM6.41553 9.09277V10.499H2.24072V9.09277H6.41553ZM6.8916 5.46729V6.87354H2.24072V5.46729H6.8916ZM16.4829 9.53223V9.94238C16.4829 10.5918 16.3901 11.1729 16.2046 11.6855C16.019 12.1982 15.7554 12.6377 15.4136 13.0039C15.0767 13.3652 14.6714 13.6411 14.1978 13.8315C13.7241 14.022 13.2017 14.1172 12.6304 14.1172C12.0591 14.1172 11.5366 14.022 11.063 13.8315C10.5894 13.6411 10.1792 13.3652 9.83252 13.0039C9.48584 12.6377 9.21729 12.1982 9.02686 11.6855C8.84131 11.1729 8.74854 10.5918 8.74854 9.94238V9.53223C8.74854 8.88281 8.84131 8.30176 9.02686 7.78906C9.21729 7.27637 9.4834 6.83691 9.8252 6.4707C10.167 6.10449 10.5747 5.82617 11.0483 5.63574C11.522 5.44531 12.0444 5.3501 12.6157 5.3501C13.1919 5.3501 13.7144 5.44531 14.1831 5.63574C14.6567 5.82617 15.0645 6.10449 15.4062 6.4707C15.7529 6.83691 16.019 7.27637 16.2046 7.78906C16.3901 8.30176 16.4829 8.88281 16.4829 9.53223ZM14.7178 9.94238V9.51758C14.7178 9.07324 14.6714 8.68018 14.5786 8.33838C14.4858 7.99658 14.3467 7.7085 14.1611 7.47412C13.9805 7.23975 13.7607 7.06152 13.502 6.93945C13.2432 6.81738 12.9478 6.75635 12.6157 6.75635C12.2886 6.75635 11.9932 6.81738 11.7295 6.93945C11.4707 7.06152 11.251 7.23975 11.0703 7.47412C10.8945 7.7085 10.7578 7.99658 10.6602 8.33838C10.5674 8.68018 10.521 9.07324 10.521 9.51758V9.94238C10.521 10.3818 10.5674 10.7749 10.6602 11.1216C10.7578 11.4634 10.897 11.7539 11.0776 11.9932C11.2632 12.2275 11.4854 12.4082 11.7441 12.5352C12.0078 12.6572 12.3032 12.7183 12.6304 12.7183C12.9624 12.7183 13.2554 12.6572 13.5093 12.5352C13.7681 12.4082 13.9878 12.2275 14.1685 11.9932C14.3491 11.7539 14.4858 11.4634 14.5786 11.1216C14.6714 10.7749 14.7178 10.3818 14.7178 9.94238ZM24.2798 11.1582H26.0522C26.0083 11.7393 25.8374 12.252 25.5396 12.6963C25.2466 13.1406 24.8364 13.4897 24.3091 13.7437C23.7817 13.9927 23.1445 14.1172 22.3975 14.1172C21.8164 14.1172 21.2939 14.022 20.8301 13.8315C20.3711 13.6411 19.978 13.3701 19.6509 13.0186C19.3286 12.6621 19.0796 12.2324 18.9038 11.7295C18.7329 11.2217 18.6475 10.6528 18.6475 10.0229V9.45166C18.6475 8.82178 18.7354 8.25537 18.9111 7.75244C19.0869 7.24463 19.3408 6.8125 19.6729 6.45605C20.0049 6.09473 20.4004 5.82129 20.8594 5.63574C21.3232 5.44531 21.8433 5.3501 22.4194 5.3501C23.1763 5.3501 23.8135 5.47949 24.3311 5.73828C24.8486 5.99219 25.2515 6.34619 25.5396 6.80029C25.8276 7.25439 26.001 7.77441 26.0596 8.36035H24.2944C24.2651 8.04297 24.1846 7.76465 24.0527 7.52539C23.9209 7.28125 23.7231 7.09082 23.4595 6.9541C23.1958 6.81738 22.8491 6.74902 22.4194 6.74902C22.0874 6.74902 21.7969 6.80762 21.5479 6.9248C21.2988 7.03711 21.0889 7.20801 20.918 7.4375C20.752 7.66699 20.625 7.9502 20.5371 8.28711C20.4541 8.61914 20.4126 9.00488 20.4126 9.44434V10.0229C20.4126 10.4526 20.4492 10.8359 20.5225 11.1729C20.6006 11.5049 20.7202 11.7856 20.8813 12.0151C21.0425 12.2446 21.2476 12.4204 21.4966 12.5425C21.7505 12.6597 22.0508 12.7183 22.3975 12.7183C22.8125 12.7183 23.1519 12.6621 23.4155 12.5498C23.6792 12.4326 23.8818 12.2568 24.0234 12.0225C24.165 11.7881 24.2505 11.5 24.2798 11.1582ZM33.4683 5.46729H35.2407V11.0923C35.2407 11.7466 35.0894 12.3008 34.7866 12.7549C34.4839 13.2041 34.0713 13.5435 33.5488 13.7729C33.0264 14.0024 32.4307 14.1172 31.7617 14.1172C31.083 14.1172 30.48 14.0024 29.9526 13.7729C29.4302 13.5435 29.02 13.2041 28.7222 12.7549C28.4243 12.3008 28.2754 11.7466 28.2754 11.0923V5.46729H30.0332V11.0923C30.0332 11.4683 30.1016 11.7783 30.2383 12.0225C30.3799 12.2617 30.5801 12.4375 30.8389 12.5498C31.0977 12.6621 31.4053 12.7183 31.7617 12.7183C32.1182 12.7183 32.4233 12.6621 32.6772 12.5498C32.9312 12.4375 33.1265 12.2617 33.2632 12.0225C33.3999 11.7783 33.4683 11.4683 33.4683 11.0923V5.46729ZM42.6714 11.7661C42.6714 11.605 42.6421 11.4609 42.5835 11.334C42.5298 11.207 42.4346 11.0923 42.2979 10.9897C42.166 10.8823 41.9829 10.7822 41.7485 10.6895C41.519 10.5967 41.2285 10.5088 40.877 10.4258C40.3691 10.3037 39.9199 10.167 39.5293 10.0156C39.1436 9.85938 38.8188 9.67871 38.5552 9.47363C38.2915 9.26855 38.0913 9.02686 37.9546 8.74854C37.8228 8.47021 37.7568 8.14551 37.7568 7.77441C37.7568 7.41797 37.835 7.09326 37.9912 6.80029C38.1475 6.50244 38.3696 6.24609 38.6577 6.03125C38.9458 5.81152 39.2876 5.64307 39.6831 5.52588C40.0786 5.40869 40.5132 5.3501 40.9868 5.3501C41.6753 5.3501 42.2734 5.4624 42.7812 5.68701C43.2891 5.91162 43.6821 6.22168 43.9604 6.61719C44.2437 7.00781 44.3853 7.46191 44.3853 7.97949H42.6201C42.6201 7.73535 42.5566 7.51562 42.4297 7.32031C42.3076 7.125 42.127 6.96875 41.8877 6.85156C41.6484 6.73438 41.3481 6.67578 40.9868 6.67578C40.6401 6.67578 40.3545 6.72705 40.1299 6.82959C39.9053 6.92725 39.7368 7.05664 39.6245 7.21777C39.5171 7.37402 39.4634 7.54492 39.4634 7.73047C39.4634 7.87695 39.4951 8.00879 39.5586 8.12598C39.627 8.24316 39.7344 8.35059 39.8809 8.44824C40.0273 8.5459 40.2178 8.63867 40.4521 8.72656C40.6865 8.81445 40.9722 8.8999 41.3091 8.98291C41.812 9.1001 42.2563 9.23926 42.6421 9.40039C43.0278 9.56152 43.3501 9.75195 43.6089 9.97168C43.8677 10.1865 44.0605 10.4404 44.1875 10.7334C44.3193 11.0215 44.3853 11.3511 44.3853 11.7222C44.3853 12.0981 44.3071 12.4351 44.1509 12.7329C43.9946 13.0259 43.77 13.2749 43.4771 13.48C43.189 13.6851 42.8423 13.8438 42.437 13.9561C42.0317 14.0635 41.5801 14.1172 41.082 14.1172C40.6426 14.1172 40.2056 14.0635 39.771 13.9561C39.3413 13.8486 38.9531 13.6826 38.6064 13.458C38.2598 13.2334 37.9814 12.9478 37.7715 12.6011C37.5664 12.2495 37.4639 11.8369 37.4639 11.3633H39.2363C39.2363 11.6172 39.2803 11.8369 39.3682 12.0225C39.4609 12.2031 39.5903 12.3521 39.7563 12.4692C39.9272 12.5815 40.1299 12.6646 40.3643 12.7183C40.5986 12.772 40.8574 12.7988 41.1406 12.7988C41.4971 12.7988 41.7876 12.7524 42.0122 12.6597C42.2417 12.562 42.4077 12.4351 42.5103 12.2788C42.6177 12.1226 42.6714 11.9517 42.6714 11.7661Z" fill="black"/>
</svg>
