<svg width="75" height="24" viewBox="0 0 75 24" fill="none" xmlns="http://www.w3.org/2000/svg">
<rect width="75" height="24" rx="12" fill="black"/>
<path d="M17.7168 8.46729V17H15.9517V8.46729H17.7168ZM21.4155 12.0928V13.499H17.2407V12.0928H21.4155ZM21.8916 8.46729V9.87354H17.2407V8.46729H21.8916ZM31.4829 12.5322V12.9424C31.4829 13.5918 31.3901 14.1729 31.2046 14.6855C31.019 15.1982 30.7554 15.6377 30.4136 16.0039C30.0767 16.3652 29.6714 16.6411 29.1978 16.8315C28.7241 17.022 28.2017 17.1172 27.6304 17.1172C27.0591 17.1172 26.5366 17.022 26.063 16.8315C25.5894 16.6411 25.1792 16.3652 24.8325 16.0039C24.4858 15.6377 24.2173 15.1982 24.0269 14.6855C23.8413 14.1729 23.7485 13.5918 23.7485 12.9424V12.5322C23.7485 11.8828 23.8413 11.3018 24.0269 10.7891C24.2173 10.2764 24.4834 9.83691 24.8252 9.4707C25.167 9.10449 25.5747 8.82617 26.0483 8.63574C26.522 8.44531 27.0444 8.3501 27.6157 8.3501C28.1919 8.3501 28.7144 8.44531 29.1831 8.63574C29.6567 8.82617 30.0645 9.10449 30.4062 9.4707C30.7529 9.83691 31.019 10.2764 31.2046 10.7891C31.3901 11.3018 31.4829 11.8828 31.4829 12.5322ZM29.7178 12.9424V12.5176C29.7178 12.0732 29.6714 11.6802 29.5786 11.3384C29.4858 10.9966 29.3467 10.7085 29.1611 10.4741C28.9805 10.2397 28.7607 10.0615 28.502 9.93945C28.2432 9.81738 27.9478 9.75635 27.6157 9.75635C27.2886 9.75635 26.9932 9.81738 26.7295 9.93945C26.4707 10.0615 26.251 10.2397 26.0703 10.4741C25.8945 10.7085 25.7578 10.9966 25.6602 11.3384C25.5674 11.6802 25.521 12.0732 25.521 12.5176V12.9424C25.521 13.3818 25.5674 13.7749 25.6602 14.1216C25.7578 14.4634 25.897 14.7539 26.0776 14.9932C26.2632 15.2275 26.4854 15.4082 26.7441 15.5352C27.0078 15.6572 27.3032 15.7183 27.6304 15.7183C27.9624 15.7183 28.2554 15.6572 28.5093 15.5352C28.7681 15.4082 28.9878 15.2275 29.1685 14.9932C29.3491 14.7539 29.4858 14.4634 29.5786 14.1216C29.6714 13.7749 29.7178 13.3818 29.7178 12.9424ZM39.2798 14.1582H41.0522C41.0083 14.7393 40.8374 15.252 40.5396 15.6963C40.2466 16.1406 39.8364 16.4897 39.3091 16.7437C38.7817 16.9927 38.1445 17.1172 37.3975 17.1172C36.8164 17.1172 36.2939 17.022 35.8301 16.8315C35.3711 16.6411 34.978 16.3701 34.6509 16.0186C34.3286 15.6621 34.0796 15.2324 33.9038 14.7295C33.7329 14.2217 33.6475 13.6528 33.6475 13.0229V12.4517C33.6475 11.8218 33.7354 11.2554 33.9111 10.7524C34.0869 10.2446 34.3408 9.8125 34.6729 9.45605C35.0049 9.09473 35.4004 8.82129 35.8594 8.63574C36.3232 8.44531 36.8433 8.3501 37.4194 8.3501C38.1763 8.3501 38.8135 8.47949 39.3311 8.73828C39.8486 8.99219 40.2515 9.34619 40.5396 9.80029C40.8276 10.2544 41.001 10.7744 41.0596 11.3604H39.2944C39.2651 11.043 39.1846 10.7646 39.0527 10.5254C38.9209 10.2812 38.7231 10.0908 38.4595 9.9541C38.1958 9.81738 37.8491 9.74902 37.4194 9.74902C37.0874 9.74902 36.7969 9.80762 36.5479 9.9248C36.2988 10.0371 36.0889 10.208 35.918 10.4375C35.752 10.667 35.625 10.9502 35.5371 11.2871C35.4541 11.6191 35.4126 12.0049 35.4126 12.4443V13.0229C35.4126 13.4526 35.4492 13.8359 35.5225 14.1729C35.6006 14.5049 35.7202 14.7856 35.8813 15.0151C36.0425 15.2446 36.2476 15.4204 36.4966 15.5425C36.7505 15.6597 37.0508 15.7183 37.3975 15.7183C37.8125 15.7183 38.1519 15.6621 38.4155 15.5498C38.6792 15.4326 38.8818 15.2568 39.0234 15.0225C39.165 14.7881 39.2505 14.5 39.2798 14.1582ZM48.4683 8.46729H50.2407V14.0923C50.2407 14.7466 50.0894 15.3008 49.7866 15.7549C49.4839 16.2041 49.0713 16.5435 48.5488 16.7729C48.0264 17.0024 47.4307 17.1172 46.7617 17.1172C46.083 17.1172 45.48 17.0024 44.9526 16.7729C44.4302 16.5435 44.02 16.2041 43.7222 15.7549C43.4243 15.3008 43.2754 14.7466 43.2754 14.0923V8.46729H45.0332V14.0923C45.0332 14.4683 45.1016 14.7783 45.2383 15.0225C45.3799 15.2617 45.5801 15.4375 45.8389 15.5498C46.0977 15.6621 46.4053 15.7183 46.7617 15.7183C47.1182 15.7183 47.4233 15.6621 47.6772 15.5498C47.9312 15.4375 48.1265 15.2617 48.2632 15.0225C48.3999 14.7783 48.4683 14.4683 48.4683 14.0923V8.46729ZM57.6714 14.7661C57.6714 14.605 57.6421 14.4609 57.5835 14.334C57.5298 14.207 57.4346 14.0923 57.2979 13.9897C57.166 13.8823 56.9829 13.7822 56.7485 13.6895C56.519 13.5967 56.2285 13.5088 55.877 13.4258C55.3691 13.3037 54.9199 13.167 54.5293 13.0156C54.1436 12.8594 53.8188 12.6787 53.5552 12.4736C53.2915 12.2686 53.0913 12.0269 52.9546 11.7485C52.8228 11.4702 52.7568 11.1455 52.7568 10.7744C52.7568 10.418 52.835 10.0933 52.9912 9.80029C53.1475 9.50244 53.3696 9.24609 53.6577 9.03125C53.9458 8.81152 54.2876 8.64307 54.6831 8.52588C55.0786 8.40869 55.5132 8.3501 55.9868 8.3501C56.6753 8.3501 57.2734 8.4624 57.7812 8.68701C58.2891 8.91162 58.6821 9.22168 58.9604 9.61719C59.2437 10.0078 59.3853 10.4619 59.3853 10.9795H57.6201C57.6201 10.7354 57.5566 10.5156 57.4297 10.3203C57.3076 10.125 57.127 9.96875 56.8877 9.85156C56.6484 9.73438 56.3481 9.67578 55.9868 9.67578C55.6401 9.67578 55.3545 9.72705 55.1299 9.82959C54.9053 9.92725 54.7368 10.0566 54.6245 10.2178C54.5171 10.374 54.4634 10.5449 54.4634 10.7305C54.4634 10.877 54.4951 11.0088 54.5586 11.126C54.627 11.2432 54.7344 11.3506 54.8809 11.4482C55.0273 11.5459 55.2178 11.6387 55.4521 11.7266C55.6865 11.8145 55.9722 11.8999 56.3091 11.9829C56.812 12.1001 57.2563 12.2393 57.6421 12.4004C58.0278 12.5615 58.3501 12.752 58.6089 12.9717C58.8677 13.1865 59.0605 13.4404 59.1875 13.7334C59.3193 14.0215 59.3853 14.3511 59.3853 14.7222C59.3853 15.0981 59.3071 15.4351 59.1509 15.7329C58.9946 16.0259 58.77 16.2749 58.4771 16.48C58.189 16.6851 57.8423 16.8438 57.437 16.9561C57.0317 17.0635 56.5801 17.1172 56.082 17.1172C55.6426 17.1172 55.2056 17.0635 54.771 16.9561C54.3413 16.8486 53.9531 16.6826 53.6064 16.458C53.2598 16.2334 52.9814 15.9478 52.7715 15.6011C52.5664 15.2495 52.4639 14.8369 52.4639 14.3633H54.2363C54.2363 14.6172 54.2803 14.8369 54.3682 15.0225C54.4609 15.2031 54.5903 15.3521 54.7563 15.4692C54.9272 15.5815 55.1299 15.6646 55.3643 15.7183C55.5986 15.772 55.8574 15.7988 56.1406 15.7988C56.4971 15.7988 56.7876 15.7524 57.0122 15.6597C57.2417 15.562 57.4077 15.4351 57.5103 15.2788C57.6177 15.1226 57.6714 14.9517 57.6714 14.7661Z" fill="white"/>
</svg>
