<svg width="53" height="18" viewBox="0 0 53 18" fill="none" xmlns="http://www.w3.org/2000/svg">
<path d="M14.9072 12.6011V14H10.2856V12.6011H14.9072ZM10.8423 5.46729V14H9.07715V5.46729H10.8423ZM24.3594 9.53223V9.94238C24.3594 10.5918 24.2666 11.1729 24.0811 11.6855C23.8955 12.1982 23.6318 12.6377 23.29 13.0039C22.9531 13.3652 22.5479 13.6411 22.0742 13.8315C21.6006 14.022 21.0781 14.1172 20.5068 14.1172C19.9355 14.1172 19.4131 14.022 18.9395 13.8315C18.4658 13.6411 18.0557 13.3652 17.709 13.0039C17.3623 12.6377 17.0938 12.1982 16.9033 11.6855C16.7178 11.1729 16.625 10.5918 16.625 9.94238V9.53223C16.625 8.88281 16.7178 8.30176 16.9033 7.78906C17.0938 7.27637 17.3599 6.83691 17.7017 6.4707C18.0435 6.10449 18.4512 5.82617 18.9248 5.63574C19.3984 5.44531 19.9209 5.3501 20.4922 5.3501C21.0684 5.3501 21.5908 5.44531 22.0596 5.63574C22.5332 5.82617 22.9409 6.10449 23.2827 6.4707C23.6294 6.83691 23.8955 7.27637 24.0811 7.78906C24.2666 8.30176 24.3594 8.88281 24.3594 9.53223ZM22.5942 9.94238V9.51758C22.5942 9.07324 22.5479 8.68018 22.4551 8.33838C22.3623 7.99658 22.2231 7.7085 22.0376 7.47412C21.8569 7.23975 21.6372 7.06152 21.3784 6.93945C21.1196 6.81738 20.8242 6.75635 20.4922 6.75635C20.165 6.75635 19.8696 6.81738 19.606 6.93945C19.3472 7.06152 19.1274 7.23975 18.9468 7.47412C18.771 7.7085 18.6343 7.99658 18.5366 8.33838C18.4438 8.68018 18.3975 9.07324 18.3975 9.51758V9.94238C18.3975 10.3818 18.4438 10.7749 18.5366 11.1216C18.6343 11.4634 18.7734 11.7539 18.9541 11.9932C19.1396 12.2275 19.3618 12.4082 19.6206 12.5352C19.8843 12.6572 20.1797 12.7183 20.5068 12.7183C20.8389 12.7183 21.1318 12.6572 21.3857 12.5352C21.6445 12.4082 21.8643 12.2275 22.0449 11.9932C22.2256 11.7539 22.3623 11.4634 22.4551 11.1216C22.5479 10.7749 22.5942 10.3818 22.5942 9.94238ZM34.1997 5.46729V14H32.4272L28.5747 8.11865V14H26.8096V5.46729H28.5747L32.4272 11.3486V5.46729H34.1997ZM44.106 9.53223V12.9307C43.9644 13.0918 43.7495 13.2651 43.4614 13.4507C43.1733 13.6362 42.7974 13.7949 42.3335 13.9268C41.8696 14.0537 41.3008 14.1172 40.627 14.1172C40.041 14.1172 39.5063 14.0269 39.0229 13.8462C38.5444 13.6606 38.1294 13.3921 37.7778 13.0405C37.4263 12.689 37.1553 12.2593 36.9648 11.7515C36.7793 11.2388 36.6865 10.6553 36.6865 10.001V9.46631C36.6865 8.81201 36.7769 8.23096 36.9575 7.72314C37.1382 7.21045 37.3945 6.77832 37.7266 6.42676C38.0635 6.0752 38.4663 5.80908 38.9351 5.62842C39.4038 5.44287 39.9263 5.3501 40.5024 5.3501C41.2837 5.3501 41.9258 5.47217 42.4287 5.71631C42.9365 5.95557 43.3247 6.2876 43.5933 6.7124C43.8618 7.13721 44.0303 7.62549 44.0986 8.17725H42.3774C42.3286 7.88428 42.2358 7.63281 42.0991 7.42285C41.9624 7.20801 41.7671 7.04199 41.5132 6.9248C41.2642 6.80762 40.9419 6.74902 40.5464 6.74902C40.2144 6.74902 39.9165 6.80762 39.6528 6.9248C39.394 7.03711 39.1743 7.20801 38.9937 7.4375C38.8179 7.66699 38.6836 7.9502 38.5908 8.28711C38.5029 8.61914 38.459 9.00732 38.459 9.45166V10.001C38.459 10.4453 38.5078 10.8384 38.6055 11.1802C38.708 11.5171 38.8545 11.8003 39.0449 12.0298C39.2402 12.2593 39.4771 12.4326 39.7554 12.5498C40.0386 12.6621 40.3608 12.7183 40.7222 12.7183C41.2056 12.7183 41.5693 12.6694 41.8135 12.5718C42.0576 12.4692 42.231 12.374 42.3335 12.2861V10.7993H40.4878V9.53223H44.106Z" fill="black"/>
</svg>
