<svg width="67" height="24" viewBox="0 0 67 24" fill="none" xmlns="http://www.w3.org/2000/svg">
<rect width="67" height="24" rx="12" fill="black"/>
<path d="M21.9072 15.6011V17H17.2856V15.6011H21.9072ZM17.8423 8.46729V17H16.0771V8.46729H17.8423ZM31.3594 12.5322V12.9424C31.3594 13.5918 31.2666 14.1729 31.0811 14.6855C30.8955 15.1982 30.6318 15.6377 30.29 16.0039C29.9531 16.3652 29.5479 16.6411 29.0742 16.8315C28.6006 17.022 28.0781 17.1172 27.5068 17.1172C26.9355 17.1172 26.4131 17.022 25.9395 16.8315C25.4658 16.6411 25.0557 16.3652 24.709 16.0039C24.3623 15.6377 24.0938 15.1982 23.9033 14.6855C23.7178 14.1729 23.625 13.5918 23.625 12.9424V12.5322C23.625 11.8828 23.7178 11.3018 23.9033 10.7891C24.0938 10.2764 24.3599 9.83691 24.7017 9.4707C25.0435 9.10449 25.4512 8.82617 25.9248 8.63574C26.3984 8.44531 26.9209 8.3501 27.4922 8.3501C28.0684 8.3501 28.5908 8.44531 29.0596 8.63574C29.5332 8.82617 29.9409 9.10449 30.2827 9.4707C30.6294 9.83691 30.8955 10.2764 31.0811 10.7891C31.2666 11.3018 31.3594 11.8828 31.3594 12.5322ZM29.5942 12.9424V12.5176C29.5942 12.0732 29.5479 11.6802 29.4551 11.3384C29.3623 10.9966 29.2231 10.7085 29.0376 10.4741C28.8569 10.2397 28.6372 10.0615 28.3784 9.93945C28.1196 9.81738 27.8242 9.75635 27.4922 9.75635C27.165 9.75635 26.8696 9.81738 26.606 9.93945C26.3472 10.0615 26.1274 10.2397 25.9468 10.4741C25.771 10.7085 25.6343 10.9966 25.5366 11.3384C25.4438 11.6802 25.3975 12.0732 25.3975 12.5176V12.9424C25.3975 13.3818 25.4438 13.7749 25.5366 14.1216C25.6343 14.4634 25.7734 14.7539 25.9541 14.9932C26.1396 15.2275 26.3618 15.4082 26.6206 15.5352C26.8843 15.6572 27.1797 15.7183 27.5068 15.7183C27.8389 15.7183 28.1318 15.6572 28.3857 15.5352C28.6445 15.4082 28.8643 15.2275 29.0449 14.9932C29.2256 14.7539 29.3623 14.4634 29.4551 14.1216C29.5479 13.7749 29.5942 13.3818 29.5942 12.9424ZM41.1997 8.46729V17H39.4272L35.5747 11.1187V17H33.8096V8.46729H35.5747L39.4272 14.3486V8.46729H41.1997ZM51.106 12.5322V15.9307C50.9644 16.0918 50.7495 16.2651 50.4614 16.4507C50.1733 16.6362 49.7974 16.7949 49.3335 16.9268C48.8696 17.0537 48.3008 17.1172 47.627 17.1172C47.041 17.1172 46.5063 17.0269 46.0229 16.8462C45.5444 16.6606 45.1294 16.3921 44.7778 16.0405C44.4263 15.689 44.1553 15.2593 43.9648 14.7515C43.7793 14.2388 43.6865 13.6553 43.6865 13.001V12.4663C43.6865 11.812 43.7769 11.231 43.9575 10.7231C44.1382 10.2104 44.3945 9.77832 44.7266 9.42676C45.0635 9.0752 45.4663 8.80908 45.9351 8.62842C46.4038 8.44287 46.9263 8.3501 47.5024 8.3501C48.2837 8.3501 48.9258 8.47217 49.4287 8.71631C49.9365 8.95557 50.3247 9.2876 50.5933 9.7124C50.8618 10.1372 51.0303 10.6255 51.0986 11.1772H49.3774C49.3286 10.8843 49.2358 10.6328 49.0991 10.4229C48.9624 10.208 48.7671 10.042 48.5132 9.9248C48.2642 9.80762 47.9419 9.74902 47.5464 9.74902C47.2144 9.74902 46.9165 9.80762 46.6528 9.9248C46.394 10.0371 46.1743 10.208 45.9937 10.4375C45.8179 10.667 45.6836 10.9502 45.5908 11.2871C45.5029 11.6191 45.459 12.0073 45.459 12.4517V13.001C45.459 13.4453 45.5078 13.8384 45.6055 14.1802C45.708 14.5171 45.8545 14.8003 46.0449 15.0298C46.2402 15.2593 46.4771 15.4326 46.7554 15.5498C47.0386 15.6621 47.3608 15.7183 47.7222 15.7183C48.2056 15.7183 48.5693 15.6694 48.8135 15.5718C49.0576 15.4692 49.231 15.374 49.3335 15.2861V13.7993H47.4878V12.5322H51.106Z" fill="white"/>
</svg>
