<svg width="400" height="300" viewBox="0 0 400 300" fill="none" xmlns="http://www.w3.org/2000/svg">
<g id="Pomodoro Timer" clip-path="url(#clip0_25_166)">
<g id="Background" clip-path="url(#clip1_25_166)">
<rect width="400" height="300" fill="white"/>
<g id="Pomodoro">
<g id="Frame 81">
<g id="STOP/RESET">
<path id="STOP" fill-rule="evenodd" clip-rule="evenodd" d="M359.5 270.5C357.843 270.5 356.5 271.843 356.5 273.5V280.5C356.5 282.157 357.843 283.5 359.5 283.5H366.5C368.157 283.5 369.5 282.157 369.5 280.5V273.5C369.5 271.843 368.157 270.5 366.5 270.5H359.5Z" fill="black"/>
</g>
<g id="MODE">
<g id="LONG">
<path id="LONG_2" d="M273.407 280.601V282H268.786V280.601H273.407ZM269.342 273.467V282H267.577V273.467H269.342ZM282.859 277.532V277.942C282.859 278.592 282.767 279.173 282.581 279.686C282.396 280.198 282.132 280.638 281.79 281.004C281.453 281.365 281.048 281.641 280.574 281.832C280.101 282.022 279.578 282.117 279.007 282.117C278.436 282.117 277.913 282.022 277.439 281.832C276.966 281.641 276.556 281.365 276.209 281.004C275.862 280.638 275.594 280.198 275.403 279.686C275.218 279.173 275.125 278.592 275.125 277.942V277.532C275.125 276.883 275.218 276.302 275.403 275.789C275.594 275.276 275.86 274.837 276.202 274.471C276.543 274.104 276.951 273.826 277.425 273.636C277.898 273.445 278.421 273.35 278.992 273.35C279.568 273.35 280.091 273.445 280.56 273.636C281.033 273.826 281.441 274.104 281.783 274.471C282.129 274.837 282.396 275.276 282.581 275.789C282.767 276.302 282.859 276.883 282.859 277.532ZM281.094 277.942V277.518C281.094 277.073 281.048 276.68 280.955 276.338C280.862 275.997 280.723 275.708 280.538 275.474C280.357 275.24 280.137 275.062 279.878 274.939C279.62 274.817 279.324 274.756 278.992 274.756C278.665 274.756 278.37 274.817 278.106 274.939C277.847 275.062 277.627 275.24 277.447 275.474C277.271 275.708 277.134 275.997 277.037 276.338C276.944 276.68 276.897 277.073 276.897 277.518V277.942C276.897 278.382 276.944 278.775 277.037 279.122C277.134 279.463 277.273 279.754 277.454 279.993C277.64 280.228 277.862 280.408 278.121 280.535C278.384 280.657 278.68 280.718 279.007 280.718C279.339 280.718 279.632 280.657 279.886 280.535C280.145 280.408 280.364 280.228 280.545 279.993C280.726 279.754 280.862 279.463 280.955 279.122C281.048 278.775 281.094 278.382 281.094 277.942ZM292.7 273.467V282H290.927L287.075 276.119V282H285.31V273.467H287.075L290.927 279.349V273.467H292.7ZM302.606 277.532V280.931C302.464 281.092 302.25 281.265 301.961 281.451C301.673 281.636 301.297 281.795 300.833 281.927C300.37 282.054 299.801 282.117 299.127 282.117C298.541 282.117 298.006 282.027 297.523 281.846C297.044 281.661 296.629 281.392 296.278 281.041C295.926 280.689 295.655 280.259 295.465 279.751C295.279 279.239 295.187 278.655 295.187 278.001V277.466C295.187 276.812 295.277 276.231 295.458 275.723C295.638 275.21 295.895 274.778 296.227 274.427C296.563 274.075 296.966 273.809 297.435 273.628C297.904 273.443 298.426 273.35 299.002 273.35C299.784 273.35 300.426 273.472 300.929 273.716C301.437 273.956 301.825 274.288 302.093 274.712C302.362 275.137 302.53 275.625 302.599 276.177H300.877C300.829 275.884 300.736 275.633 300.599 275.423C300.462 275.208 300.267 275.042 300.013 274.925C299.764 274.808 299.442 274.749 299.046 274.749C298.714 274.749 298.417 274.808 298.153 274.925C297.894 275.037 297.674 275.208 297.494 275.438C297.318 275.667 297.184 275.95 297.091 276.287C297.003 276.619 296.959 277.007 296.959 277.452V278.001C296.959 278.445 297.008 278.838 297.105 279.18C297.208 279.517 297.354 279.8 297.545 280.03C297.74 280.259 297.977 280.433 298.255 280.55C298.539 280.662 298.861 280.718 299.222 280.718C299.706 280.718 300.069 280.669 300.313 280.572C300.558 280.469 300.731 280.374 300.833 280.286V278.799H298.988V277.532H302.606Z" fill="black"/>
</g>
<g id="BREAK">
<path id="BREAK_2" d="M191.136 278.272H188.777L188.763 277.056H190.865C191.182 277.056 191.451 277.015 191.67 276.932C191.89 276.849 192.056 276.729 192.168 276.573C192.286 276.412 192.344 276.216 192.344 275.987C192.344 275.728 192.288 275.516 192.176 275.35C192.063 275.184 191.895 275.064 191.67 274.991C191.446 274.913 191.167 274.874 190.835 274.874H189.371V282H187.605V273.467H190.74C191.268 273.467 191.736 273.516 192.146 273.614C192.562 273.707 192.916 273.848 193.208 274.039C193.501 274.229 193.724 274.473 193.875 274.771C194.031 275.064 194.109 275.411 194.109 275.811C194.109 276.158 194.021 276.48 193.846 276.778C193.675 277.076 193.411 277.317 193.055 277.503C192.698 277.688 192.237 277.791 191.67 277.811L191.136 278.272ZM191.055 282H188.279L188.997 280.601H191.055C191.397 280.601 191.678 280.552 191.897 280.455C192.122 280.357 192.288 280.225 192.396 280.059C192.503 279.888 192.557 279.693 192.557 279.473C192.557 279.229 192.508 279.019 192.41 278.843C192.317 278.663 192.166 278.523 191.956 278.426C191.746 278.323 191.473 278.272 191.136 278.272H189.334L189.341 277.056H191.626L192.029 277.532C192.571 277.522 193.011 277.618 193.348 277.818C193.685 278.013 193.931 278.267 194.087 278.58C194.249 278.892 194.329 279.217 194.329 279.554C194.329 279.969 194.256 280.33 194.109 280.638C193.963 280.94 193.75 281.194 193.472 281.399C193.194 281.6 192.852 281.751 192.447 281.854C192.042 281.951 191.578 282 191.055 282ZM196.801 273.467H200.163C200.686 273.467 201.154 273.523 201.569 273.636C201.984 273.748 202.336 273.914 202.624 274.134C202.917 274.349 203.139 274.617 203.291 274.939C203.447 275.257 203.525 275.625 203.525 276.045C203.525 276.509 203.442 276.907 203.276 277.239C203.11 277.566 202.875 277.837 202.573 278.052C202.27 278.267 201.914 278.44 201.503 278.572L200.939 278.88H197.973L197.958 277.474H200.185C200.537 277.474 200.827 277.42 201.057 277.312C201.286 277.205 201.459 277.056 201.577 276.866C201.694 276.67 201.752 276.446 201.752 276.192C201.752 275.923 201.694 275.691 201.577 275.496C201.464 275.296 201.289 275.142 201.049 275.035C200.815 274.927 200.52 274.874 200.163 274.874H198.574V282H196.801V273.467ZM201.972 282L199.863 278.221L201.73 278.206L203.876 281.919V282H201.972ZM212.135 280.601V282H207.25V280.601H212.135ZM207.806 273.467V282H206.041V273.467H207.806ZM211.505 276.888V278.287H207.25V276.888H211.505ZM212.12 273.467V274.874H207.25V273.467H212.12ZM217.852 275.218L215.288 282H213.501L216.936 273.467H218.123L217.852 275.218ZM220.217 282L217.639 275.203L217.368 273.467H218.577L222.004 282H220.217ZM220.107 278.836V280.162H215.229V278.836H220.107ZM225.7 273.467V282H223.935V273.467H225.7ZM231.171 273.467L227.538 277.701L225.487 279.7L225.077 278.045L226.527 276.272L228.974 273.467H231.171ZM229.215 282L226.396 278.067L227.685 276.976L231.325 282H229.215Z" fill="black"/>
</g>
<g id="FOCUS">
<rect x="91.5" y="265" width="75" height="24" rx="12" fill="black"/>
<path id="focus" d="M109.217 273.467V282H107.452V273.467H109.217ZM112.916 277.093V278.499H108.741V277.093H112.916ZM113.392 273.467V274.874H108.741V273.467H113.392ZM122.983 277.532V277.942C122.983 278.592 122.89 279.173 122.705 279.686C122.519 280.198 122.255 280.638 121.914 281.004C121.577 281.365 121.171 281.641 120.698 281.832C120.224 282.022 119.702 282.117 119.13 282.117C118.559 282.117 118.037 282.022 117.563 281.832C117.089 281.641 116.679 281.365 116.333 281.004C115.986 280.638 115.717 280.198 115.527 279.686C115.341 279.173 115.249 278.592 115.249 277.942V277.532C115.249 276.883 115.341 276.302 115.527 275.789C115.717 275.276 115.983 274.837 116.325 274.471C116.667 274.104 117.075 273.826 117.548 273.636C118.022 273.445 118.544 273.35 119.116 273.35C119.692 273.35 120.214 273.445 120.683 273.636C121.157 273.826 121.564 274.104 121.906 274.471C122.253 274.837 122.519 275.276 122.705 275.789C122.89 276.302 122.983 276.883 122.983 277.532ZM121.218 277.942V277.518C121.218 277.073 121.171 276.68 121.079 276.338C120.986 275.997 120.847 275.708 120.661 275.474C120.48 275.24 120.261 275.062 120.002 274.939C119.743 274.817 119.448 274.756 119.116 274.756C118.789 274.756 118.493 274.817 118.229 274.939C117.971 275.062 117.751 275.24 117.57 275.474C117.395 275.708 117.258 275.997 117.16 276.338C117.067 276.68 117.021 277.073 117.021 277.518V277.942C117.021 278.382 117.067 278.775 117.16 279.122C117.258 279.463 117.397 279.754 117.578 279.993C117.763 280.228 117.985 280.408 118.244 280.535C118.508 280.657 118.803 280.718 119.13 280.718C119.462 280.718 119.755 280.657 120.009 280.535C120.268 280.408 120.488 280.228 120.668 279.993C120.849 279.754 120.986 279.463 121.079 279.122C121.171 278.775 121.218 278.382 121.218 277.942ZM130.78 279.158H132.552C132.508 279.739 132.337 280.252 132.04 280.696C131.747 281.141 131.336 281.49 130.809 281.744C130.282 281.993 129.645 282.117 128.897 282.117C128.316 282.117 127.794 282.022 127.33 281.832C126.871 281.641 126.478 281.37 126.151 281.019C125.829 280.662 125.58 280.232 125.404 279.729C125.233 279.222 125.147 278.653 125.147 278.023V277.452C125.147 276.822 125.235 276.255 125.411 275.752C125.587 275.245 125.841 274.812 126.173 274.456C126.505 274.095 126.9 273.821 127.359 273.636C127.823 273.445 128.343 273.35 128.919 273.35C129.676 273.35 130.313 273.479 130.831 273.738C131.349 273.992 131.751 274.346 132.04 274.8C132.328 275.254 132.501 275.774 132.56 276.36H130.794C130.765 276.043 130.685 275.765 130.553 275.525C130.421 275.281 130.223 275.091 129.959 274.954C129.696 274.817 129.349 274.749 128.919 274.749C128.587 274.749 128.297 274.808 128.048 274.925C127.799 275.037 127.589 275.208 127.418 275.438C127.252 275.667 127.125 275.95 127.037 276.287C126.954 276.619 126.913 277.005 126.913 277.444V278.023C126.913 278.453 126.949 278.836 127.022 279.173C127.101 279.505 127.22 279.786 127.381 280.015C127.542 280.245 127.748 280.42 127.997 280.542C128.25 280.66 128.551 280.718 128.897 280.718C129.312 280.718 129.652 280.662 129.916 280.55C130.179 280.433 130.382 280.257 130.523 280.022C130.665 279.788 130.75 279.5 130.78 279.158ZM139.968 273.467H141.741V279.092C141.741 279.747 141.589 280.301 141.287 280.755C140.984 281.204 140.571 281.543 140.049 281.773C139.526 282.002 138.931 282.117 138.262 282.117C137.583 282.117 136.98 282.002 136.453 281.773C135.93 281.543 135.52 281.204 135.222 280.755C134.924 280.301 134.775 279.747 134.775 279.092V273.467H136.533V279.092C136.533 279.468 136.602 279.778 136.738 280.022C136.88 280.262 137.08 280.438 137.339 280.55C137.598 280.662 137.905 280.718 138.262 280.718C138.618 280.718 138.923 280.662 139.177 280.55C139.431 280.438 139.626 280.262 139.763 280.022C139.9 279.778 139.968 279.468 139.968 279.092V273.467ZM149.171 279.766C149.171 279.605 149.142 279.461 149.083 279.334C149.03 279.207 148.935 279.092 148.798 278.99C148.666 278.882 148.483 278.782 148.249 278.689C148.019 278.597 147.729 278.509 147.377 278.426C146.869 278.304 146.42 278.167 146.029 278.016C145.644 277.859 145.319 277.679 145.055 277.474C144.792 277.269 144.591 277.027 144.455 276.749C144.323 276.47 144.257 276.146 144.257 275.774C144.257 275.418 144.335 275.093 144.491 274.8C144.647 274.502 144.87 274.246 145.158 274.031C145.446 273.812 145.788 273.643 146.183 273.526C146.579 273.409 147.013 273.35 147.487 273.35C148.175 273.35 148.773 273.462 149.281 273.687C149.789 273.912 150.182 274.222 150.46 274.617C150.744 275.008 150.885 275.462 150.885 275.979H149.12C149.12 275.735 149.057 275.516 148.93 275.32C148.808 275.125 148.627 274.969 148.388 274.852C148.148 274.734 147.848 274.676 147.487 274.676C147.14 274.676 146.854 274.727 146.63 274.83C146.405 274.927 146.237 275.057 146.125 275.218C146.017 275.374 145.963 275.545 145.963 275.73C145.963 275.877 145.995 276.009 146.059 276.126C146.127 276.243 146.234 276.351 146.381 276.448C146.527 276.546 146.718 276.639 146.952 276.727C147.187 276.814 147.472 276.9 147.809 276.983C148.312 277.1 148.756 277.239 149.142 277.4C149.528 277.562 149.85 277.752 150.109 277.972C150.368 278.187 150.561 278.44 150.688 278.733C150.819 279.021 150.885 279.351 150.885 279.722C150.885 280.098 150.807 280.435 150.651 280.733C150.495 281.026 150.27 281.275 149.977 281.48C149.689 281.685 149.342 281.844 148.937 281.956C148.532 282.063 148.08 282.117 147.582 282.117C147.143 282.117 146.706 282.063 146.271 281.956C145.841 281.849 145.453 281.683 145.106 281.458C144.76 281.233 144.481 280.948 144.271 280.601C144.066 280.25 143.964 279.837 143.964 279.363H145.736C145.736 279.617 145.78 279.837 145.868 280.022C145.961 280.203 146.09 280.352 146.256 280.469C146.427 280.582 146.63 280.665 146.864 280.718C147.099 280.772 147.357 280.799 147.641 280.799C147.997 280.799 148.288 280.752 148.512 280.66C148.742 280.562 148.908 280.435 149.01 280.279C149.118 280.123 149.171 279.952 149.171 279.766Z" fill="white"/>
</g>
</g>
<g id="START/PAUSE">
<g id="START" clip-path="url(#clip2_25_166)">
<path id="icon" d="M45.1421 275.285C46.4363 276.062 46.4364 277.938 45.1421 278.715L36.0287 284.183C34.6958 284.982 33.0007 284.022 33.0004 282.468L33.0004 271.532C33.0004 269.978 34.6957 269.018 36.0287 269.818L45.1421 275.285Z" fill="black"/>
</g>
</g>
</g>
<g id="SECONDS">
<rect width="282" height="202" transform="translate(59 49)" fill="white"/>
<g id="BOTTOM">
<rect id="Rectangle 49" x="59" y="241" width="10" height="10" fill="black"/>
<rect id="Rectangle 52" x="75" y="241" width="10" height="10" fill="black"/>
<rect id="Rectangle 51" x="91" y="241" width="10" height="10" fill="black"/>
<rect id="Rectangle 50" x="107" y="241" width="10" height="10" fill="black"/>
<rect id="Rectangle 31" x="123" y="241" width="10" height="10" fill="black"/>
<rect id="Rectangle 30" x="139" y="241" width="10" height="10" fill="black"/>
<rect id="Rectangle 29" x="155" y="241" width="10" height="10" fill="black"/>
<rect id="Rectangle 28" x="171" y="241" width="10" height="10" fill="black"/>
<rect id="Rectangle 27" x="187" y="241" width="10" height="10" fill="black"/>
<rect id="Rectangle 26" x="203" y="241" width="10" height="10" fill="black"/>
<rect id="Rectangle 25" x="219" y="241" width="10" height="10" fill="black"/>
<rect id="Rectangle 24" x="235" y="241" width="10" height="10" fill="black"/>
<rect id="Rectangle 23" x="251" y="241" width="10" height="10" fill="black"/>
<rect id="Rectangle 22" x="267" y="241" width="10" height="10" fill="black"/>
<rect id="Rectangle 21" x="283" y="241" width="10" height="10" fill="black"/>
<rect id="Rectangle 58" x="299" y="241" width="10" height="10" fill="black"/>
<rect id="Rectangle 9" x="315" y="241" width="10" height="10" fill="black"/>
<rect id="Rectangle 20" x="331" y="241" width="10" height="10" fill="black"/>
</g>
<g id="RIGHT">
<rect id="Rectangle 10" x="331" y="65" width="10" height="10" fill="black"/>
<rect id="Rectangle 11" x="331" y="81" width="10" height="10" fill="black"/>
<rect id="Rectangle 12" x="331" y="97" width="10" height="10" fill="black"/>
<rect id="Rectangle 13" x="331" y="113" width="10" height="10" fill="black"/>
<rect id="Rectangle 14" x="331" y="129" width="10" height="10" fill="black"/>
<rect id="Rectangle 15" x="331" y="145" width="10" height="10" fill="black"/>
<rect id="Rectangle 16" x="331" y="161" width="10" height="10" fill="black"/>
<rect id="Rectangle 17" x="331" y="177" width="10" height="10" fill="black"/>
<rect id="Rectangle 18" x="331" y="193" width="10" height="10" fill="black"/>
<rect id="Rectangle 19" x="331" y="209" width="10" height="10" fill="black"/>
<rect id="Rectangle 8" x="331" y="225" width="10" height="10" fill="black"/>
</g>
<g id="LEFT">
<rect id="Rectangle 57" x="59" y="65" width="10" height="10" fill="black"/>
<rect id="Rectangle 40" x="59" y="81" width="10" height="10" fill="black"/>
<rect id="Rectangle 48" x="59" y="97" width="10" height="10" fill="black"/>
<rect id="Rectangle 47" x="59" y="113" width="10" height="10" fill="black"/>
<rect id="Rectangle 46" x="59" y="129" width="10" height="10" fill="black"/>
<rect id="Rectangle 45" x="59" y="145" width="10" height="10" fill="black"/>
<rect id="Rectangle 44" x="59" y="161" width="10" height="10" fill="black"/>
<rect id="Rectangle 43" x="59" y="177" width="10" height="10" fill="black"/>
<rect id="Rectangle 42" x="59" y="193" width="10" height="10" fill="black"/>
<rect id="Rectangle 41" x="59" y="209" width="10" height="10" fill="black"/>
<rect id="Rectangle 59" x="59" y="225" width="10" height="10" fill="black"/>
</g>
<g id="TOP">
<rect id="0" x="59" y="49" width="10" height="10" fill="black"/>
<rect id="1" x="75" y="49" width="10" height="10" fill="black"/>
<rect id="2" x="91" y="49" width="10" height="10" fill="black"/>
<rect id="3" x="107" y="49" width="10" height="10" fill="black"/>
<rect id="4" x="123" y="49" width="10" height="10" fill="black"/>
<rect id="5" x="139" y="49" width="10" height="10" fill="black"/>
<rect id="6" x="155" y="49" width="10" height="10" fill="black"/>
<rect id="7" x="171" y="49" width="10" height="10" fill="black"/>
<rect id="8" x="187" y="49" width="10" height="10" fill="black"/>
<rect id="9" x="203" y="49" width="10" height="10" fill="black"/>
<rect id="10" x="219" y="49" width="10" height="10" fill="black"/>
<rect id="11" x="235" y="49" width="10" height="10" fill="black"/>
<rect id="12" x="251" y="49" width="10" height="10" fill="black"/>
<rect id="13" x="267" y="49" width="10" height="10" fill="black"/>
<rect id="14" x="283" y="49" width="10" height="10" fill="black"/>
<rect id="15" x="299" y="49" width="10" height="10" fill="black"/>
<rect id="Rectangle 39" x="315" y="49" width="10" height="10" fill="black"/>
<rect id="Rectangle 55" x="331" y="49" width="10" height="10" fill="black"/>
</g>
</g>
<g id="DIGITS">
<g id="TENS">
<path id="Rectangle 2" d="M122.673 85H192L179.212 95.8333H134.788L122.673 85Z" fill="#171717"/>
<path id="Rectangle 5" d="M132.769 144.583H181.231L190.654 150L181.231 155.417H132.769L124.019 150L132.769 144.583Z" fill="#171717"/>
<path id="Rectangle 3" d="M122 148.646L122 87.7083L132.769 97.8646L132.769 141.875L122 148.646Z" fill="#171717"/>
<path id="Rectangle 4" d="M192 88.3854L192 148.646L181.231 141.875L181.231 97.8646L192 88.3854Z" fill="#171717"/>
<path id="Rectangle 2_2" d="M189.308 215L124.692 215L134.788 204.167L179.211 204.167L189.308 215Z" fill="#171717"/>
<path id="Rectangle 3_2" d="M192 152.031L192 213.646L181.231 202.812L181.231 158.125L192 152.031Z" fill="#171717"/>
<path id="Rectangle 4_2" d="M122 213.646L122 151.354L132.769 158.125L132.769 202.135L122 213.646Z" fill="#171717"/>
</g>
<g id="ONES">
<path id="Rectangle 2_3" d="M208.015 85H277.342L264.553 95.8333H220.13L208.015 85Z" fill="#171717"/>
<path id="Rectangle 5_2" d="M218.111 144.583H266.573L275.996 150L266.573 155.417H218.111L209.361 150L218.111 144.583Z" fill="#171717"/>
<path id="Rectangle 3_3" d="M207.342 148.646L207.342 87.7083L218.111 97.8646L218.111 141.875L207.342 148.646Z" fill="#171717"/>
<path id="Rectangle 4_3" d="M277.342 88.3854L277.342 148.646L266.573 141.875L266.573 97.8646L277.342 88.3854Z" fill="#171717"/>
<path id="Rectangle 2_4" d="M274.649 215L210.034 215L220.13 204.167L264.553 204.167L274.649 215Z" fill="#171717"/>
<path id="Rectangle 3_4" d="M277.342 152.031L277.342 213.646L266.573 202.812L266.573 158.125L277.342 152.031Z" fill="#171717"/>
<path id="Rectangle 4_4" d="M207.342 213.646L207.342 151.354L218.111 158.125L218.111 202.135L207.342 213.646Z" fill="#171717"/>
</g>
</g>
</g>
<path id="Pomodoro_2" d="M162.024 20.872C162.749 20.872 163.32 20.6747 163.736 20.28C164.162 19.8853 164.376 19.3413 164.376 18.648C164.376 17.6667 164.125 16.8667 163.624 16.248C163.133 15.6187 162.413 15.304 161.464 15.304C160.738 15.304 160.077 15.512 159.48 15.928V25.688L161.96 26.376L161.64 27.016H155.976V26.52L157.48 25.336V15.608L155.816 15.064L156.136 14.424H157.992C159.026 14.424 160.045 14.392 161.048 14.328C161.794 14.2853 162.344 14.264 162.696 14.264C163.442 14.264 164.104 14.424 164.68 14.744C165.266 15.0533 165.72 15.4853 166.04 16.04C166.36 16.5947 166.52 17.208 166.52 17.88C166.52 18.6267 166.248 19.3307 165.704 19.992C165.16 20.6533 164.466 21.1707 163.624 21.544C162.781 21.9173 161.954 22.0827 161.144 22.04L160.392 21.496L160.712 20.856H162.008L162.024 20.872ZM172.78 18.344C173.484 18.344 174.113 18.5307 174.668 18.904C175.233 19.2667 175.67 19.7627 175.98 20.392C176.3 21.0213 176.46 21.7147 176.46 22.472C176.46 23.2933 176.209 24.0667 175.708 24.792C175.206 25.5067 174.577 26.0827 173.82 26.52C173.073 26.9467 172.348 27.16 171.644 27.16C170.94 27.16 170.305 26.9787 169.74 26.616C169.185 26.2427 168.748 25.7413 168.428 25.112C168.118 24.4827 167.964 23.7893 167.964 23.032C167.964 22.2107 168.214 21.4427 168.716 20.728C169.217 20.0027 169.841 19.4267 170.588 19C171.345 18.5627 172.076 18.344 172.78 18.344ZM171.852 19.688C170.646 19.688 170.044 20.5467 170.044 22.264C170.044 23.2773 170.262 24.1253 170.7 24.808C171.137 25.48 171.761 25.816 172.572 25.816C173.777 25.816 174.38 24.952 174.38 23.224C174.38 22.2213 174.161 21.384 173.724 20.712C173.286 20.0293 172.662 19.688 171.852 19.688ZM193.498 27H190.458V21.608C190.458 21.0213 190.367 20.6107 190.186 20.376C190.005 20.1413 189.679 20.024 189.21 20.024C188.879 20.024 188.554 20.088 188.234 20.216C187.914 20.3333 187.535 20.5733 187.098 20.936V25.8L188.538 26.36L188.218 27H185.178V21.608C185.178 21.0213 185.087 20.6107 184.906 20.376C184.725 20.1413 184.399 20.024 183.93 20.024C183.599 20.024 183.274 20.088 182.954 20.216C182.634 20.3333 182.255 20.5733 181.818 20.936V25.8L183.258 26.36L182.938 27H178.474V26.504L179.898 25.384V20.856L178.474 20.024V19.528L181.21 18.184L181.722 20.232L183.85 18.456C184.074 18.3707 184.367 18.328 184.73 18.328C185.349 18.328 185.861 18.4987 186.266 18.84C186.671 19.1707 186.927 19.6293 187.034 20.216L189.114 18.472C189.338 18.3867 189.631 18.344 189.994 18.344C190.719 18.344 191.295 18.568 191.722 19.016C192.149 19.4533 192.362 20.0507 192.362 20.808V25.8L193.818 26.36L193.498 27ZM200.139 18.344C200.843 18.344 201.472 18.5307 202.027 18.904C202.592 19.2667 203.03 19.7627 203.339 20.392C203.659 21.0213 203.819 21.7147 203.819 22.472C203.819 23.2933 203.568 24.0667 203.067 24.792C202.566 25.5067 201.936 26.0827 201.179 26.52C200.432 26.9467 199.707 27.16 199.003 27.16C198.299 27.16 197.664 26.9787 197.099 26.616C196.544 26.2427 196.107 25.7413 195.787 25.112C195.478 24.4827 195.323 23.7893 195.323 23.032C195.323 22.2107 195.574 21.4427 196.075 20.728C196.576 20.0027 197.2 19.4267 197.947 19C198.704 18.5627 199.435 18.344 200.139 18.344ZM199.211 19.688C198.006 19.688 197.403 20.5467 197.403 22.264C197.403 23.2773 197.622 24.1253 198.059 24.808C198.496 25.48 199.12 25.816 199.931 25.816C201.136 25.816 201.739 24.952 201.739 23.224C201.739 22.2213 201.52 21.384 201.083 20.712C200.646 20.0293 200.022 19.688 199.211 19.688ZM215.482 27H212.442V25.848L210.954 27.032C210.612 27.1173 210.202 27.16 209.722 27.16C209.018 27.16 208.383 26.9787 207.818 26.616C207.263 26.2427 206.826 25.7413 206.506 25.112C206.196 24.4827 206.042 23.7893 206.042 23.032C206.042 22.2107 206.292 21.4427 206.794 20.728C207.295 20.0027 207.919 19.4267 208.666 19C209.423 18.5627 210.154 18.344 210.858 18.344C211.444 18.344 211.978 18.5093 212.458 18.84V15.544L211.034 14.552V14.056L213.77 13.032H214.378V25.8L215.802 26.36L215.482 27ZM210.538 25.8C210.858 25.8 211.162 25.7573 211.45 25.672C211.748 25.576 212.079 25.4 212.442 25.144V21.496C212.378 20.9627 212.127 20.5307 211.69 20.2C211.263 19.8587 210.676 19.688 209.93 19.688C208.724 19.688 208.122 20.5467 208.122 22.264C208.122 23.2667 208.33 24.1093 208.746 24.792C209.162 25.464 209.759 25.8 210.538 25.8ZM222.155 18.344C222.859 18.344 223.488 18.5307 224.043 18.904C224.608 19.2667 225.045 19.7627 225.355 20.392C225.675 21.0213 225.835 21.7147 225.835 22.472C225.835 23.2933 225.584 24.0667 225.083 24.792C224.581 25.5067 223.952 26.0827 223.195 26.52C222.448 26.9467 221.723 27.16 221.019 27.16C220.315 27.16 219.68 26.9787 219.115 26.616C218.56 26.2427 218.123 25.7413 217.803 25.112C217.493 24.4827 217.339 23.7893 217.339 23.032C217.339 22.2107 217.589 21.4427 218.091 20.728C218.592 20.0027 219.216 19.4267 219.963 19C220.72 18.5627 221.451 18.344 222.155 18.344ZM221.227 19.688C220.021 19.688 219.419 20.5467 219.419 22.264C219.419 23.2773 219.637 24.1253 220.075 24.808C220.512 25.48 221.136 25.816 221.947 25.816C223.152 25.816 223.755 24.952 223.755 23.224C223.755 22.2213 223.536 21.384 223.099 20.712C222.661 20.0293 222.037 19.688 221.227 19.688ZM233.609 18.36C233.961 18.36 234.27 18.456 234.537 18.648C234.804 18.84 235.012 19.1067 235.161 19.448L234.105 20.776H233.497C233.454 20.5093 233.374 20.3227 233.257 20.216C233.15 20.0987 233.001 20.04 232.809 20.04C232.574 20.04 232.324 20.104 232.057 20.232C231.801 20.3493 231.508 20.5787 231.177 20.92V25.688L233.417 26.376L233.097 27.016H227.833V26.52L229.257 25.4V20.872L227.833 20.04V19.544L230.569 18.2L231.065 20.168L232.729 18.472C232.953 18.3867 233.246 18.344 233.609 18.344V18.36ZM241.186 18.344C241.89 18.344 242.519 18.5307 243.074 18.904C243.639 19.2667 244.077 19.7627 244.386 20.392C244.706 21.0213 244.866 21.7147 244.866 22.472C244.866 23.2933 244.615 24.0667 244.114 24.792C243.613 25.5067 242.983 26.0827 242.226 26.52C241.479 26.9467 240.754 27.16 240.05 27.16C239.346 27.16 238.711 26.9787 238.146 26.616C237.591 26.2427 237.154 25.7413 236.834 25.112C236.525 24.4827 236.37 23.7893 236.37 23.032C236.37 22.2107 236.621 21.4427 237.122 20.728C237.623 20.0027 238.247 19.4267 238.994 19C239.751 18.5627 240.482 18.344 241.186 18.344ZM240.258 19.688C239.053 19.688 238.45 20.5467 238.45 22.264C238.45 23.2773 238.669 24.1253 239.106 24.808C239.543 25.48 240.167 25.816 240.978 25.816C242.183 25.816 242.786 24.952 242.786 23.224C242.786 22.2213 242.567 21.384 242.13 20.712C241.693 20.0293 241.069 19.688 240.258 19.688Z" fill="black"/>
</g>
</g>
<defs>
<clipPath id="clip0_25_166">
<rect width="400" height="300" fill="white"/>
</clipPath>
<clipPath id="clip1_25_166">
<rect width="400" height="300" fill="white"/>
</clipPath>
<clipPath id="clip2_25_166">
<rect width="16" height="16" fill="white" transform="translate(30.5 269)"/>
</clipPath>
</defs>
</svg>
