<svg width="282" height="202" viewBox="0 0 282 202" fill="none" xmlns="http://www.w3.org/2000/svg">
<rect width="282" height="202" fill="white"/>
<rect y="192" width="10" height="10" fill="black"/>
<rect x="16" y="192" width="10" height="10" fill="black"/>
<rect x="32" y="192" width="10" height="10" fill="black"/>
<rect x="48" y="192" width="10" height="10" fill="black"/>
<rect x="64" y="192" width="10" height="10" fill="black"/>
<rect x="80" y="192" width="10" height="10" fill="black"/>
<rect x="96" y="192" width="10" height="10" fill="black"/>
<rect x="112" y="192" width="10" height="10" fill="black"/>
<rect x="128" y="192" width="10" height="10" fill="black"/>
<rect x="144" y="192" width="10" height="10" fill="black"/>
<rect x="160" y="192" width="10" height="10" fill="black"/>
<rect x="176" y="192" width="10" height="10" fill="black"/>
<rect x="192" y="192" width="10" height="10" fill="black"/>
<rect x="208" y="192" width="10" height="10" fill="black"/>
<rect x="224" y="192" width="10" height="10" fill="black"/>
<rect x="240" y="192" width="10" height="10" fill="black"/>
<rect x="256" y="192" width="10" height="10" fill="black"/>
<rect x="272" y="192" width="10" height="10" fill="black"/>
<rect x="272" y="16" width="10" height="10" fill="black"/>
<rect x="272" y="32" width="10" height="10" fill="black"/>
<rect x="272" y="48" width="10" height="10" fill="black"/>
<rect x="272" y="64" width="10" height="10" fill="black"/>
<rect x="272" y="80" width="10" height="10" fill="black"/>
<rect x="272" y="96" width="10" height="10" fill="black"/>
<rect x="272" y="112" width="10" height="10" fill="black"/>
<rect x="272" y="128" width="10" height="10" fill="black"/>
<rect x="272" y="144" width="10" height="10" fill="black"/>
<rect x="272" y="160" width="10" height="10" fill="black"/>
<rect x="272" y="176" width="10" height="10" fill="black"/>
<rect y="16" width="10" height="10" fill="black"/>
<rect y="32" width="10" height="10" fill="black"/>
<rect y="48" width="10" height="10" fill="black"/>
<rect y="64" width="10" height="10" fill="black"/>
<rect y="80" width="10" height="10" fill="black"/>
<rect y="96" width="10" height="10" fill="black"/>
<rect y="112" width="10" height="10" fill="black"/>
<rect y="128" width="10" height="10" fill="black"/>
<rect y="144" width="10" height="10" fill="black"/>
<rect y="160" width="10" height="10" fill="black"/>
<rect y="176" width="10" height="10" fill="black"/>
<rect width="10" height="10" fill="black"/>
<rect x="16" width="10" height="10" fill="black"/>
<rect x="32" width="10" height="10" fill="black"/>
<rect x="48" width="10" height="10" fill="black"/>
<rect x="64" width="10" height="10" fill="black"/>
<rect x="80" width="10" height="10" fill="black"/>
<rect x="96" width="10" height="10" fill="black"/>
<rect x="112" width="10" height="10" fill="black"/>
<rect x="128" width="10" height="10" fill="black"/>
<rect x="144" width="10" height="10" fill="black"/>
<rect x="160" width="10" height="10" fill="black"/>
<rect x="176" width="10" height="10" fill="black"/>
<rect x="192" width="10" height="10" fill="black"/>
<rect x="208" width="10" height="10" fill="black"/>
<rect x="224" width="10" height="10" fill="black"/>
<rect x="240" width="10" height="10" fill="black"/>
<rect x="256" width="10" height="10" fill="black"/>
<rect x="272" width="10" height="10" fill="black"/>
</svg>
