<svg width="70" height="130" viewBox="0 0 70 130" fill="none" xmlns="http://www.w3.org/2000/svg">
<path d="M0.673096 0H70L57.2116 10.8333H12.7885L0.673096 0Z" fill="black"/>
<path d="M10.7693 59.5833H59.2308L68.6539 65L59.2308 70.4167H10.7693L2.01929 65L10.7693 59.5833Z" fill="black"/>
<path d="M0 63.6458L-2.44641e-06 2.70835L10.7692 12.8646L10.7692 56.875L0 63.6458Z" fill="black"/>
<path d="M70 3.38541L70 63.6458L59.2308 56.875L59.2308 12.8646L70 3.38541Z" fill="black"/>
<path d="M67.3076 130L2.69223 130L12.7884 119.167L57.2115 119.167L67.3076 130Z" fill="black"/>
<path d="M70 67.0312L70 128.646L59.2308 117.812L59.2308 73.125L70 67.0312Z" fill="black"/>
<path d="M0 128.646L8.04368e-06 66.3542L10.7692 73.125L10.7692 117.135L0 128.646Z" fill="black"/>
</svg>
